<?xml version="1.0" standalone="no"?>
<!DOCTYPE svg PUBLIC "-//W3C//DTD SVG 20010904//EN"
 "http://www.w3.org/TR/2001/REC-SVG-20010904/DTD/svg10.dtd">
<svg version="1.0" xmlns="http://www.w3.org/2000/svg"
 width="435.000000pt" height="120.000000pt" viewBox="0 0 435.000000 120.000000"
 preserveAspectRatio="xMidYMid meet">
<metadata>
Created by potrace 1.15, written by Peter Selinger 2001-2017
</metadata>
<g transform="translate(0.000000,120.000000) scale(0.100000,-0.100000)"
fill="#ffffff" stroke="none">
<path d="M300 975 l0 -75 -75 0 -75 0 0 -300 0 -300 75 0 75 0 0 -75 0 -75
300 0 300 0 0 75 0 75 75 0 75 0 0 150 0 150 -225 0 -225 0 0 -75 0 -75 150 0
150 0 0 -75 0 -75 -300 0 -300 0 0 300 0 300 300 0 300 0 0 -75 0 -75 75 0 75
0 0 75 0 75 -75 0 -75 0 0 75 0 75 -300 0 -300 0 0 -75z"/>
<path d="M1200 600 l0 -450 75 0 75 0 0 150 0 150 300 0 300 0 0 -150 0 -150
75 0 75 0 0 150 0 150 -75 0 -75 0 0 75 0 75 75 0 75 0 0 150 0 150 -75 0 -75
0 0 75 0 75 -375 0 -375 0 0 -450z m750 150 l0 -150 -300 0 -300 0 0 150 0
150 300 0 300 0 0 -150z"/>
<path d="M2250 600 l0 -450 75 0 75 0 0 150 0 150 300 0 300 0 0 75 0 75 75 0
75 0 0 150 0 150 -75 0 -75 0 0 75 0 75 -375 0 -375 0 0 -450z m750 150 l0
-150 -300 0 -300 0 0 150 0 150 300 0 300 0 0 -150z"/>
<path d="M3450 975 l0 -75 -75 0 -75 0 0 -300 0 -300 75 0 75 0 0 -75 0 -75
300 0 300 0 0 75 0 75 75 0 75 0 0 300 0 300 -75 0 -75 0 0 75 0 75 -300 0
-300 0 0 -75z m600 -300 l0 -225 -75 0 -75 0 0 -75 0 -75 -225 0 -225 0 0 300
0 300 300 0 300 0 0 -225z"/>
<path d="M3750 525 l0 -75 75 0 75 0 0 75 0 75 -75 0 -75 0 0 -75z"/>
</g>
</svg>
